<mxfile host="app.diagrams.net" agent="Mozilla/5.0 (Windows NT 10.0; Win64; x64) AppleWebKit/537.36 (KHTML, like Gecko) Chrome/132.0.0.0 Safari/537.36" version="26.0.11">
  <diagram name="PÃ¡gina-1" id="mWXvzTm0WsaQfORGLogm">
    <mxGraphModel dx="1007" dy="556" grid="1" gridSize="10" guides="1" tooltips="1" connect="1" arrows="1" fold="1" page="1" pageScale="1" pageWidth="827" pageHeight="1169" math="0" shadow="0">
      <root>
        <mxCell id="0" />
        <mxCell id="1" parent="0" />
        <mxCell id="DRNkL6EbgQ7DahQyPjbA-4" value="" style="group" vertex="1" connectable="0" parent="1">
          <mxGeometry x="170" y="170" width="90" height="140" as="geometry" />
        </mxCell>
        <mxCell id="DRNkL6EbgQ7DahQyPjbA-1" value="" style="html=1;whiteSpace=wrap;shape=isoCube2;backgroundOutline=1;isoAngle=15;movable=1;resizable=1;rotatable=1;deletable=1;editable=1;locked=0;connectable=1;fillColor=#ffe6cc;strokeColor=#d79b00;" vertex="1" parent="DRNkL6EbgQ7DahQyPjbA-4">
          <mxGeometry width="90" height="100" as="geometry" />
        </mxCell>
        <mxCell id="DRNkL6EbgQ7DahQyPjbA-3" value="service&lt;div&gt;client&lt;/div&gt;" style="text;html=1;align=center;verticalAlign=middle;resizable=1;points=[];autosize=1;strokeColor=none;fillColor=none;movable=1;rotatable=1;deletable=1;editable=1;locked=0;connectable=1;" vertex="1" parent="DRNkL6EbgQ7DahQyPjbA-4">
          <mxGeometry x="15" y="100" width="60" height="40" as="geometry" />
        </mxCell>
        <mxCell id="DRNkL6EbgQ7DahQyPjbA-5" value="" style="shape=image;verticalLabelPosition=bottom;labelBackgroundColor=default;verticalAlign=top;aspect=fixed;imageAspect=0;image=data:image/png,iVBORw0KGgoAAAANSUhEUgAAATQAAAEECAYAAACm+8gyAAAAAXNSR0IArs4c6QAAAAZiS0dEAP8A/wD/oL2nkwAAAAlwSFlzAAALEwAACxMBAJqcGAAAAAd0SU1FB9sKGg4uMgh3nLAAAAAZdEVYdENvbW1lbnQAQ3JlYXRlZCB3aXRoIEdJTVBXgQ4XAABwnklEQVR42u19B5hbR7n22k61Y0tyW0nbjutKshNCgNAhdO693MCFcIEUW/PNzLFD76FDLu2HALnApQRIHEubQgokkFASkpCEAOlx7JW0ttOLE6c3x/buav5n5sycMzp7JB1pJe06zPc859lde1flaOadr7zf+3V1GTNmzJgxY8aMGTNmzJgxY8aMGTNmzJgxY8aMGTNmzJgxY8aMGTNmzJgxY8aMGTNmzJgxY8aMGTNmzJgxY8aMGTNmzJgxY8aMGTNmzJgxY8aMGTNmzJgxY8aMGTNmzJgxY8aMGTNmzJgxboWU1fDflDKWuXHGjBmbetPB6OY+q6uQsWYWUtbsQtpaWExby0tp62WltHVUMWW9u5C2ssW09fZi2npNMWW9qJCyeotpK1JIWfuNrLRmqMcppg3AGTNmrEM2EuBRFdNWTyFlvamQtk4qpq2zimnrtmLaeqqYtlgpbbGidomfUxYrpKz7CmnrL8WUdUoxZb2vmLFWFAatWRWPa7w3Y8aMdSKkHFllxUoZ6z2llPXdQtr6RyFl7eRAVcpI0MrIK22VixmrXOJfvYv5rueKaatQSFs/L6WsNcMpK2FAzZgxY2234ZQVLaSt8wop665iynq6mLbGNKBygEsCmAI29988gGPu9+rvUuL3+GM9V0pb9xZT1sWFtDXf3HFjxoy1xgtbbXUVB639i2lrUTFjvbKYtv6qwsaSA0qOtzURwNT/V73k3zAd3AoSEAva4xQy1l9LKesVxbS1cHjQ2m9klRX4Wo0ZM2bMNX8yvpCyEsW09a5iyvrfUtoqaMAzLsGrrEBNA6ZyPSALBLd0wN85/+aGp4WUdXshZX2vlLHeXkhZC/XXaiqlxowZc8BAA7JbBqyZpYz1+kLa+nohZf29kLKe1JL55ZLniZWLmYFyGE9sEpcIU4upCXm3Rwsp66+FtPX5Qsp6SQUImwqpMWP/gt5YgEdTSFufLmVEdfKJUsYaleAhgMQFMuFNDZSL6QEXdOS/TQq89L93ny8z4IWlCkwzwlNTntueUsZ6rDBo/WM4Y31gAlAbr82YsX8NECumrZnFtDWHc8WKaYsU09YuGdZ59IqMB2ZFLWdWSg8IACqsXsKKqX5WGOwTP/uv6rmzgSpANlDtccp+sCs6ubWym89zXvP2Ytp6ZzFt9RYz1kE6oJVMrs2YsReeDa+yDiymrNXFtPWRUsr6XSFl7dJoFuWils8qpoM9KXFlBtj9n7TZ/Z9cx7a+9ghWWNnDCku7WZGDW2ZJBahVgBYHs7TlPobz1WKFFT1s2OpmhRUJNnLkalZI9VUDxnKxwjN0w+DxoqKKpKz7ihnrjGLa+u9CxlpSLbw2ZszYPmR6PolXCAtp6/hi2tpQTFt3SqqF8sb03Fj1JL0GaoVlCXbviWvY6BOPsOdLw+zRM37K7oH3s0Kmj90e258VUwOSgzbgT/S7HhoHvuHe+eL3t776MHbfhxB7dMPP2YMnf5JtSUbd6me9QkLRo4QorhuT4PZsIWPdVkpZ3yxkrLdq98IsDmPG9gXz54228EplyrqgwHldGWtXKWWNFTz+l6hYejmrcBVK5Tlt7p7Nnr31n4zb+OgoG3vmafb89hH2yGk/YFsGomy4bwErpPp9gDbACoP9bHigm22efwC7J/tf7Jl//JXteeBeNvbsM+Kxhpcvcjy9OqFrqbKqqgBNhaRlLf/G84FPFjJWsZC2PjMhFDfhqDFj08/uOtTiVItZxbS1oJC2jihmrN/qFUoVUmqeWLnUBNVCAU1hWQ8rvXSJAKEyv8pl8VX8vGcXe/h7J7Ptb3stK714JSvwv1m1hJWOXM3ueMcb2I6vn8RGn36UKeN/y+2R005hw70Lgr27kJXRSm+wkvOm2rAKaeujxZQ1UExZc0oZr4/UmDFj08ATK6StaCljvaGQsr5eSFvXF305sGIlb6xpvlhFMn/VEra5ex576P99uQKUdGAbe/Yp9vQVf2APffvL7NHT/pftuu1GNr7nuQlAJr4f2822v/XVVfNvDb/GTAX5t6x1LChe29OFlHVeKWOdWEhZK+54kTUzKFw3ZsxY54BtdTFlfbKUsS4tpq2HK/ojM17Y5W7wdAuATPfUMhYbeflq9vzIlomgpoGVC1oakLm/K//tqcsvYaUjVrpFg1bx2YqVRF1W0U+aEv/Pw+4txbT18+FB611bMtY8k28zZqxNFrSpCmnr1YW0dU0pbT00nLb2SPJpRX9kKzwx5xrQKROe98T/L9XPhpcn2X0fI2x8966JXpcErnH5tez8YyXI8f/fu5s98IWPCRpINYpHy8i6OlFY6yUtpKzxQtp6ujhobS1mrO9vGbQOruUVGzNmrImQcktG5MYOLGWseDFtvaGYtjYX0xW5oXIAkLXGuxHhXyVHTPHOSi8eZNve9hp2/yfWs933b1foVOGlTfDQAsCM2+47Rti2N76cFVb2ClBzw84We2u+tqqKHlJJ+XB5bTLf9rliykoV09YhhZQXkhpwM2YsDJCtqtwowymrr5C2/ouHQ5JuoULKcRfI6tAsmgkpdS9M0TSGlyxmpcOXszv+843soW9+iT195R/Z6NOPT/DGGjH+69xv2/PgvWznj7/L7jrm7ax0xCAbXtotnlOFtUGvrR1XMa11Jsgm+ZJTRPhTIW19spCyDitlKj03Y8aM+UPIjFB79X5OWUcV0tY3Cmnr5kLaelIlsrlHJlp/dImelm/qAVfLbMvieWxzYo4AsR3/83n29OW/Z3seuI95aX8PyJoBNOfvx93v9z78IHvmmsvYjm99hd35rrewLT2HiNdQ1MC1Wk6vJWCm5RrdXFvG4+sVU9ZdpYyVL6SsNVyBxD2ITK7N2L+8NxawCYYz1mdLPKTMWE8U0tZeSTFQG82hXni9lW3yUgbY8NIE29x9CHvg8+vYrmKBjT62k5X37mHl8fGAima5JrDVA7myL0zlz8Gfa++jO9mu0hb2wEk227zoIKeTQObYQnLUJptrUyoiivKhwG2slBGtYvcVUtYFpZS12OTajP3L58ZKKWtGKWXNLmasgWLaWs+VLbjIYcGpvikvrC5zv9UXB43t//Zq9sy1f2a7776DPT9SYLvvuZPt2fEg2/vYo2zsyccFiXZs1y42vmc3K4+NsvHRMQeIfAA3Pj5eJY9WdsubQZVRVUBQUDj6+MPsgS9+jG170ytY8dBlE4oHoUNpX+WzgTC2XPRVSt2uBOfn84sp6/BS2opxLiD7jgE1Yy9Qe+gIq2t40PID22AxbaFiyvq1kMPR25CUDpjGmyp18BI5s+VJtrn7YLalLyr6KkdelmLbXv9Stv3oN7K7jz2a3bduDXvgpI+yh775BbbzR99lj/zyx+zx8zayp/50CXvmhmvY86XNbPz55wM9teqhaZmN736OjT7+GNv74L1sz13b2fOF29gzf7+KPfWn37Mn//hb9vD3vs62v+0VovezUQ/NDaVrNNLXfMx0BWm3Iux3P7+U9fdi2vpaMW29rpi25tbKjxoztk/btkHBSn9XIWX9sJSxCrIlx8vPTAwny6UOg1ml6oXl9GQO9onqIwc5URxYGhdJ++El3sWbyouZflY6fCUbOTLDtr76cPbkxb8W+TGR+PdXNxljz28rsCd/dwF7NPcLtvNHp7AdJ3+O3f/pdeye7AfYne96k/DG+OOMvDTDioctY4XBHgfIUvVVPSob632/nx5gd2aWsO0B4NYIsE3ItaVd75o//0PFjHVxKWN9ZHjQGjSr39gLK+mfsr43nLa2D6etp0sZa6yk8aAKmrpFBajVqEA6vzMwaXJsdTAL9zuBF5cUWhpnd77zzWz08Ucn5Nb4Nfrow+ye7HtY6bDlrHjoUlbIOH8n/lZcfeKr+rcK2kjNPNqAxpfzvqrf5SB222A/u7B3PrtyaTe7i7dj+R7LH57Wa7Pyz0ooekq7/NpdHLR2FNPW5YWUdfiEFITpIzU23Ww4Y3UxPTeWEf2Ucwtpa2UhZX1DyONkvBFuhbS7CermyPwbtqCBRnHQ0SIrSBAI2vzFtA4SUrss4Pf8JFodGJqtkt4eO4A9dtYZAQWDcfbM3/4iejz1XJhO0dCb2WvSSnzvYeJ7l430g/3sppW97JL+hezsnhg7bfEc9tGDuti3ovuxK5Z0s1tW9rJhDpbpfvGck6CKCE+7oAljurJMjkf39wKfS5q2uksp64DiKssUE4xNzyT/cMaaXcpYhxbT1meLaeuPIvRIeeTXYkYjvlbR4K/KA+PhHg/1rMUitONhGNchu+Mdr2N3H/cudu+JWXb/Zz7IHvz8R9mDX/0Me+gbX2Q7vvIZ9uAXPs7u//SJ7N71a0Xu645/ey3b+pojWOklKVZI9Toh49K4lpNyQrJiugUhK+8i6JvHdt1+c2XXwJ7d7MGvfU48d0t6Nv1hY9oBwuFUP7tpRS+7ammc/b5/ETu3dz47r3c+u7B/IfvF4kPYFw7pYp+Z08U+enAX+3pkFtvQfQi73FrENq3sZSMZi231P3YmZGXVN0BG+37cPdDS1kgpbf20lLaOLmSsPn1NmXYrY1MRQrrfj2SsZDEjeEnnFDPWHb6huiqk9Dhj6aBwUm8x0nlgc9nm+Gy27Q0vY/euP549fMq32OPnbmDPXHcVe35kmO297y4Rvo098xQb37OLlUd3s3J5TALIGCuP7REtSWNPP8VGd+5ge+69U+iXPXPN5eyxodPZw9/5KruHHMe2vvZwQdMY7pnPiquXVoRpzXtpHIh72B3vfBMbe+4ZV5Fj786H2bY3HSlAupnEflBPKfdcR/jFQ8qVfezaZQn2h4HF7Dd9CwSInd+3gF3Qt0CAGf/KAe3zh3S510lzHHD74iEz2CmxA9g5yQi7ZmmcbcssEWFpQzm2Kl6bfqhp3LYnig7XkHvyb/7nYcZjM9ZhT0zZlkFrSSllXTicse4upMSg3PGC3k9ZqapaV+VCgZrDA4uzzd1z2ANfOJHtGt7M9u64X1AlyqOjbHxs1O2HbJyZr1EqxsbZ+N49Auz2PHg/e/bGv7F77feyTbO7BBA1T2L12qVEmLx6KXss9wv3NTx95SXs9vkHTgjrwub8gkCNe1M3ruhlfxhYxH7LQat3ATu/dz67oG++ADAFZkGA9oW5MyrA7XNzuoT39tW5M9h3Yvuz3/UuZHevXlrhsYXNN/q8Nl1tt6wVg7jXNlp0aDvDw4PWtys8NpNnM9YyT0xn76et/YpcpidtvayYtoYKKa33T1+g6Sr6XHVCplK6X4gfjrz8UHbfx4DtfeR+T2ssgKcVlrhaizZR1prGXc7X04+we+C9rPSStJObCzkroCoFRPDaXidoGNy2vm41KyxNVH28opY784OH+F7LCd4+2MduWNHLLhlYxM7tibHzemPsAg24/EBWzUPjoKYuF+TmzhDg9qnZXeyr82aySwYWsJtX9rAtvhxkM7k2vfCjqwa7s0hT1s5CyjqmkLIiI0st47EZm6RHpuUxhh0ge2UhbZ1cTFn/dMmUmQovrGHBxIrNypP7g73svo9g9tyt11eKJlaT4mmizaja35cD+GHP/vNqdveaY5xZAb4N3Oj74/myR37+v+yJ353FNs8/iBVXLa0zSCUoN+b8/uZUP7thRQ+7cmmcXdy/0M2N6YB1Yd9CF8j8V5CHNgHM9K+HdLHPzuliHz+4i508byb7Vfch7I8DC0UhQeXa3MExzXm1FfMRPDVhfhhYfymlrLeYHWmsJeFlKWO9qZC2fllMidJ7BWeslNG07CeT0E451bWH//dbbGzXsxUAwwK+tssqK5FSoPGJx9hD3/oyG7YWNZ3AFx7Vyl62/U0vZyOvWK3xyCZSTyYUQ2RejF8cQK5eFmeXDixmF/YuYOf1LXBzY/olQKt/QVOAVg3cFLCdJMGN//zd2AEsn5jHrlq6WHhVd8pcW5OtWWWfvFFZ8QBLaev+Qqr/NWZnGmvatqatA4sZ64eFtPW4EACUoWWhclJ4BfWi6VajwT5RoeTJ+3GfR9ZJMGMBHiH/ylVn7/sYrahKNp7Il1XPwT6f91Y7Z3ZnxmI3CLrFIpHg53mx83slcPX5vvYvDHWFBTRxBYSleq6NX1+ZO4P9v9j+7OK++eyOVUvE4TQ5+fCBilmkxfTAaCljfcHsSmPN5c3S1v6F9MB31EzIogZeuk59a3S5BljpiBR7+qo/N50ba7fHxvsxn7r0QlY6bEnTlc9GZLVFbizVz65f3iMIsOf0xIJzYernkEDWFKBpnpoXgjpfPzfXA7bPz+lin53dxU5ZcKDjVU1CDaSoDXOWOcjRW1b2fcnsTGNN5s8GlhRTA09I+kS5pGZJZlrfjsSfY+vLDxMN4NMBxAI9NsbYc5tvYltfeVjDTeFBFIt6G33zYJ/Ij/Fw8tc9sYqwkufGVDjZiFfWLKAFVUFdmsdsh+bxvfkOzePapXFZCe1vnvKiUXaKkopy/Yqe0XOTMQNoxpqzTYN9qwrpgXF1Ura1d5Iv+pek2TNXX14puj9NPDQxoq5cZk9dfikrHbaszeKKA66HxkmxTs4sIXJmPOnPq5gczMTVJJiFBbQJXpkMPxUR9xuR/Twi7mAVIu5kOHaSIHztsiQ7KxEd3dAdMYBmrDn7bd/CzN+XJ0dLXtWqXGrDRtY38AOfsoXSRKdyZqFpHePjbHzP82JmAG9Ib7MG2QRA4PdmiwS3y6xuSc2YHwhSkwW0z9fwyrhH9pGDuti3o/uzKxtolarXE1stHOeAzvOG+USU5eKR0XwyagDNWHN2ZjySObcnNnqTbAcKkp1plVqqu3FX9rLHNvyMje9+vkIvrJ0AV5OXJkNN/noezZ/GtsTndATMquXc+LVNUDYG2GVLutlFgjw7XxYJ5lfwzuqBWxAPTeee+Qm2X5s7g/1g/gHsr0vjk21mr/o+FXhzILt+RQ87NxljZ3bPE4CWT0RHc3HjoRlr0vKJaGZjPDJ6TjLGrub9kyJvNOByjVqllqpvCA5owyuTbMfJJwlZnSAV2HYAWyCoSVls3oN5/8dtB8xSA51Qia3aGeB2HqQtCWz97B/Lk8Jr+62qfvqpG33BubZqgKa3QH1p7gx26oKD2AU9MXbdsoRQ6diuiwM02QrlB+kRmXbg7+e6ZUn2u76FbGM8ws6MRxSYsaFEzACasckBmnMqRlkuEWW/7V3ArlueFAtvRIahrQK2ihBrsF8MItn2ppeLqeO7br9pAvG1Ffm1ap0CUmKRPXfzP9iOb3xeNL8PL4u3FMQnN7RFK87IPBP/LG4dlL2blpNrO6d3flVvTf2bC2hzHc+MdwN88mAeUu7H8om57Moli0UXwlZetGlWNy1g9J/f47w91ceuWZoQoMzBa6MGZALMkjGWjxsPzdgkAS0Xj42qRZXjiyweYef3zGc3ruyrEAasJfPcdN6IS/xwMukrDmV3/tfb2KNn/i8rs7FgYKo2ybcO8JV9vzq+93m282ffEc9XetkqB7RT/U239kym0bz671mu4oXf0+Gvl+faOLj9dWnC7R44X/PSglqfTprdxT4xu4t9L3YAu2pJt/j74SAZpgblhCrfU8B7S1vsiiVx9uue+c4a84OY/OoCWtIAmrFJA1rMXVRqkZ3ePY9d2DOf3byy1+npS3uhqNIra4pNH7SpVVK8dwHbnJjN7sm+kz35x9+x526/he2+9042+uhONvbkE0LJYmz382JYL29e919crmeMK248+4z4/b2P7GS779rOnrv9NvbEhWeyO9//drZ5wf5sS98CAaal5tnuNXNEgZwznzBkUWq2FUIKTQY9z4gotAwInTPeGiWItzLXdoH8/pfdc9nJkVns1AUHsuuWxdk9q5dWfI4T3n+DIWWljJITMvPXtGmwT4SwZyWibAPPkcUj7trSQcy9EjGTQzPWekDz8hlRkd/g10W9C0Wi+LbBXncj+XsPJyuP4xUkLDbcu4BtmjuDbbFirHRkht3x769jd695N7vvo5Q9+OVPsR3f+hJ7+AffZDt/8G228wffcr6e+i224+tfYA9+6ZPsvg9jdvfxR7Ptb3stGzlikG3pmcs2Rfdnw30LXe5Ts0AWnPcaqCSLqjaoFT1Cypv3iDpS3otZMd0nNNq4Vtsd/3kUu+u9/8ZKhy4L9Vom3ivn3vOQbktqgP1zRQ+7XBYSftO/kP3JWsyuXBJn1y9PChWNbRqw+pVCJvveR6TnyJVAeL6Pe2RndM/zQksBWtGKdeYHNQNoxloKaPmABSfyHTJU+HUyxv40sFhsHL6ItwVt6El4Ol4oyzfsEqf3c0VvVX3/wIsP7l0qxRyXJ5wJ5RpYtmI03ISNzduAVvSxLT3z2e2xA9nt8/cTr2HrK1axO95xFLuHHMse/NIn2M4fn8IeO3sDe+bqy4RWG9dse+jbXxbN+mFf04SpTj7vqihzbbfIkHIk7fSHFtyCQ+PS5lWrsql+Cab97G9LE0Jc8myZH9NDS3VA5v1emR/QTA7NWLtCTv/PKsfGL744z+uZz65ZlhALulRFHrqZqlipRt6u0auWuGS9HFcgs12GxjxUHObV2v5FbPOiQ9imQ7pY8bAku9f+AHt0w4/YM/+4mj23ZRPbfe9dTrj8zFMiFBZj8MbGhMYbz+vtvu9uVlgZr8jhhW0Zqh729VeV7y5lJidkOcEry1jsLzw/Jr0vF8B8B+JQHSAzOTRjbQW0auCmf89PYM4f4jyivy9Lip7EQg0N/2YLCe1IyFcFSS23pbT6+VCT0ouWsxKXAn/li9j2t72G3XnMv7N71ryXPfyj/2HP3XzNhApFuaJYwXw0EaXJVmbb3/hiNjyweNLV1doFhoHGujkCJI38RYnbRbU1KQ63MySHbCgAxBoBM5NDM9YRQAsKQfWvZ8pFfV5PjP3Z6hb6XYLP5su1VfMsOgVmbtg56OW23BCWdwbw0XQvTTvzC45+I7vXPoE9+OVPskd+8gP2xIVns2euu5Lt3j7Cxp56NLiSGoJHp4PZ/Z9ZzzZ3z2UlTYpnKq8J7Uju5zUgwtYtkgj7x4HF7OxkjP2qe5441IZqVC0bvQygGesYoFUDNzcclbmTs5IxdnHfQkHU3ZTqqwxJ20SLCEUVGexnty84kA0vXyxoIgK06LHswa98RuS2+PyCp6+9kj2/dZjtuf8eNvbUE6w8PlqdKVIOJu1Wk0LSvbQnLjqHFQ5dMiX3o5pirl5sUBVsTtvZJOghcXZR7wI2lKySH2sSwEwOzdi0ALQJFdEAcOMnN+9AuJTnmXhyOpDaoE9dat+G5gn70uFL2TM3X8P2PPQg233/PWzvY484A1c4DWRslJXHxzwPKgCYwqrp1iIC80fffe8dbPu/vd6hjUwRkE1QvNAq1ZxywQ8h3r/Jk/znCKBxcqf5Kt7YJEGt7Ky/qMmhGZtaQKuWZ6uokMqQ9M/WYnbryj4RuhTSlUquFS0/LQ5LPQ+NVyEj7KHvfpntuecOwVXjDenlGl0FrexU4EoefFDLjq9/3hnR12Egq5YTK/n6K28b7BOf1QZJuQiTT2163ThgVh5KRsXXfCLCu1a+aHamsSkFtHrVUUHUlae8E44mBLXAk48ZmJQcTegcWmpAjLArrrbYfR9cyx4/ewPbc/d2pvch+Ceft0rqW0yB+tsVrLAyKcC1k4AWPJzYu/c8NcBbqrhHNqSIsG0IKQMBTYBalIMay8Wjz+TiETNXwFiTgBaPrs7FxYISLn9LF2tAWOJy2uIRl9P2DzmzcpuPTd/cWLl6m1lW8Fb2scKSbjGAePvbX8t2fOMLYv7n+NieCZ7VZOXB1d/suWcb2/rK1Wx4SXxCW1MnPTR+j7fKXt2bVvYJIu4Fsi1J769sYUjpXxdlDdCUlyYKAvlE7ESzK41NxkPry8Wjj1QsWMdbK7f8NPbxlBSnjbfGnJeMsauWJoRO/UgTelsNN37r4ClDYC4Pfue73sIe//WGqiodoXNlE353lN117H+y4eU9bW+Ar9dCxQ8OPg7vt30L2dkCSJz+XfG5BLQntRDMyurQ5KCW59/HI+W8I4ywI5eIvvrs3vkz+LrMxSNmcxprxkOL7Z9LxL4tmdzlPPfWktHykCPlUvYWYhvCDV8+5kyZs7lmWVJU1oZlgjooFG0Vb8v/GDxRvzk+l2197aHsqct+x/bseICN797tDnSpll+r5s2NyyLDYxt/7kxpr9bA3abQUs0aLUjZnhtX9rKL+hY4+bHueVXznu36jIe08DIfj47nk7Fd+WTsr0PJ2DJ5wJpNaaw5G4rHHFDrjs3OJaLfyCeij8uFXXYuAWSyAtVaUAsqIqiLFxB4ZY3znQRhd7C/dp6theKTThuTxYatbrZ54YFs2xuOZA9+9bOiVWn0kYcqqpVBebYgoHt+eBPb9sYjXXCpNgGqdXpqWsN/ekAozvJ+Tj4Ojx8YG7ojbQGvEJ552WujizyVT0QuzyVjKBc9cKbjlcXMpjQ2OdsoF9H5PfGZuUTknUOJyB94CCBzam4Fqp2LPQjYFKeNe4p8I3I1iZu5nn3aEvmfgm8gr+v1tFIWm3tsy5OCeFs6fDm767h3skd/+X9s97ZCzQKC/vPYnt3s/k+uY4Ul8daq/1YDY9lfy+8Pz03+gU9Zl+H9Rt/B0S5QC6x480JDPFLeEI9wPbRnf9+/8KtHz+w6SEt9mM1orEWeWtIBtTMWH9KVT0Tm5uKRd+QT0QedfjzlpUXbeqoHa2NFKjTauNfG8z48/7PNFT70+jOLLSoiVMzXVJ6hbOsqrLLYyKsOZ/egY9jenXcHDkrWwe3Z6/4iQlilQFtsMX/M/375feHVSq5nd5bWexvEF2z34aR/z7sKLuoTE9jLw6n+sWJ64MFiqv+G4UHrKLMDjbXFLuxdUPHz2Ynor85JxnYPORtDhKE5jZfUKYBzv0/GRN6Hh6RcWZcDGw9HC1XmIPh7ExsHtWDRQpGTWtHLNh3Uxe6Bd7Hnbr+ZjT75hKPJpoHb2HNPsdsXzKh4baV06/TW9DwZ763kHhkH/dO13sp2cMfCkKv1gs8FvQvE3NFtziBhdUiUtcrzNYW0dXgxbR2o1t6WtGU2pLHmrZDyFlAhbS0vpgay965eeurtg33Pctnki/oWlnlLU622l3bnY/RNw0OXM7sjgm5whdXNbuLKF0Iqp3m1j4aLCKuXCt22Lf3z2V3vewfb+X+nsF2bb2blPc+L6VF3Hn0UKyzvbYlUUUUvrOyRHXa1xxYL5ZPTde2xDn02/hB2Y9wBs3NlDvSfy3vE6/VJe5eLDrjJr1wQ0ioXUtaGUsZK8zV496EG0Iw1YaW01VU61lk8w4PWymLa+mYhPXBbIT0wVvCSyzxMKF+/vKf854HFYrGeIRuTO7V5gtqr9Fwbpx9wUui1SxOimrfN35De4iJCBcjxUFRor8XZ1te8mN3/mQ+x+z+1vmEp63qJfn5tV9pjfMhI/8Kq2mOdOFyCDhg+/Z0XIG4RGnSW9EgrCjll7TPgYKYupdV2eyFjrTY709jkgC1jrR8etO4vZawx5+QckAttoOyequmBspKO4RtKTOypEd50ajO5eTaZfFaEXaXXVaGV3yKvrRrouLJDTXiJtaaucw9n2yqLXWbFxbzOoN7Kdh4s1fJvSj7oNzIFsFlra3OqulX5hGVJYSlLkBNXIW2NljLW58yONNashzarmBpYX0gNjDqDgMVCK5fSfIG5ieeyf1FyoOAk2CuXJgQptiIB7fOk2gV2QW1WLqctHmGnL57H/mJ1s9v4TASlddZiwm69GZthh4xUa01SBwgX0jxTcceq9M126vBQBwj/zH/TM5/9w8mPTShU6IIDgTSVCmBzDs1Cqn9002CfaU431iygDfQVUwMPSK9CnZYukNX0RrR2pb8vT4qciUMRiHaMIlAvJBXig/GoCM84KGySg1FGqijgdkJUsl7TOH99Ygjv8h7haZ4jQ3y/nHWnqTSqZY3n6/4kde9EZdU/W6KRQ0B5s3ImwS0re0cv7F1gAM1Yc7Y51b+qmB4Y47mOgld5KofyKLSvI9rcyKuWxsXsRSH8GK9O4uyEZ+Elq53XwTfjZXIzjmicLf/wkVbm2sKEldx7vGOVM1SY5wF5A/9ZUjwzKFfpHzjSTtqFUt1QogK3qWlZ6SoDqRvJFcq/4yE1LyCc1zN/dIPRQzPWrF3avyhzw4qeUU+AcaBci1oQikYg22x4YpgTO/XqW6fCpKoilJLTdrYEt78tT7LtmSWVU6uqzKdsdZO4vqn5hr6cT0qSQKVeZwcaxav+rPJjvNjijTLsr6i4hm1FC5w1IX/mZGk+l0CmLUZzyagBNGPN2Znd8zIX9iwYvW1lX81eyWKTfKmtUvH0d0IoMBo4aLZTZM8gL0RIhyfnizFvm9VMhBq9o6UmRr5Vy6sJKaNUv2jv4pLWPEeWq3I/2pXgDwR8Kcz5m76FQr9ue5U8X1DXQhj9NeWRDstDjxNuN3jgbRRrjTVvXA/tzHhk9PyeBYKYyTd0KYDyMBndrREJbLcO9rK/LpFSzonqUs6dyLP5ZyLwsIqz67mXdBOfNyBnIgS1Q7VEf4yH5kviYhAw763cqBVT2l0lrtVmdoFoM3NoF9tlXqsZSaeqnpt4vH4R8vP8IFd22RCfp+UGYwbQjE0O0HKJ6Kha0Fwu+8aVPQKASlV4XM0Mw1XANpJxhtHyfAlXRT03yYfROsOMJz01qEUzEbi3dEn/IuE5qcJHTa+k6sg8LwTn7337qiXC4+FEYA6eGwP6KzvWeaFEN7vniVDvUvl+N6f6AukuzVSEdTDb5qQzxOd+6cAicY/9B5qZKWCsNYAW58J6nkYZX+CXyAnjI9VCpkaH4fr6I1VvJG9dum5ZQoQ4G9QUoRDhYtvbduSm58DDOyW2+cHLx2sLDDE1Mix/n54+fzCI5UMM4m2FR6poLTzc5iTYTSt7BegWfFXK0AdYjSKK0l/j1I4Le+Z7+UHf8OEKQDMzBYxNDtAcCW7/HIBfLZ4reFw8PCrooUdTDPiBqpwrvhG2py1Bq+AAcrYUGmzjUI7QMxFyMhzldJTrliVFhc+diRCQbyvI/+O/w+/bDct7hben9MfybdYfC/TI5AzVnEY85h0fIxl9onqTB5bfG9f017ZI/TVe8RadJb4+YPd9u1/NGDtjLQO06jwuLsbHw4S/L+9hmwdbE5IEFRG2ycflsx//LPsT/bLQnaqQ+kFBADwPz6TiBwcETk/529KEyD3y67qlCfbXpQnRW8l5b7/ucfJjZ1Tpr+wEXcUdLZiIisLMhNawBqu6/m6LoGLJrSt7xdi731bRX6t1DwygGWuZhxYmacxbXHiYcqtMGpdqEFPDt/sEVxU3SYb87/sWijDNTy7thEhhIEDI+6HuyZCWk8pp/5frILm42qStXwve3WJ3+PNIFfpEaP5YgLLJVlk8UAfRr3uk/lq88f5Sk0Mz1nJAC8PjUtpknEhbt6zfQB9jISCE4W1LvH2Jh788iX3mFJB1q9FMal3tlLeu1VspQuSemOje4G1Tjoy5JWgizXw2E35P88rEfAKeH+tdMEF/jXeMNErJMTk0Y23x0AIBwpe03hhIvKw9AyBMcnlCW4yqksqQlJf7FQE1708yd5C42wjbvhO9laqIwdn8W9NB+a763nM4/bUBtnmwX0g2Xdi7UITiLdFfMzk0Y+0GNN8MxUAPRbXGcILkX13pmIFgHlfYsn+6ehGBewWqRYgn3M9JxDoe4nX6CgIxFfoq7THBI6xGM2lglkEQd27EnU/Qx65c0i08sjM0b7lVRGADaMY6Bmhh5202tsEGmmbdj8gmbu4d8pkDnBbANbk2xCMvCDCrRQTml8pnTvYAqSU+sFUTH+BtbOckY23VXzM5NGMdB7SqEtlVQiA+b3MkUx/MwhJ2g8Ih0T862M9u8I1p6xRNolPa/NwrurBngUjycy+1mGo+xK/FOeOh/Z0Zi129LCnC+87IQ0VNDs3Y1ABao0nqs5JRQaAV8zZVz6SvzSqs5zYBCDNSqz/tETkd/tNCh8iq59k6NBOhFT2nehHmLHk4/F0001d2J4RN9Bcb0F/727KE+9l1QMCzzKen8zmw+URkNBePGUAzNllAi7adRvArOW/zDyIc7REbZySA+tGwukU6IFQSl8VuHuwTvYncq8nX6B+dKmCrynuTYKbUd7lHttUvd5QOP+nKr3ARFLpfL9rRugXtokMS62Xh7TljEgWo5RORPUOJ2DFmZxprDtDi0dU5PsE64bn9neBxeZy2bnbzyj5P8bSCqBl+SlK9ZnBOCOa9ihxMeRGhGqdtqrwz1Qa0UcuP8QILb+iv9t6KDWq2VZCg0wNCcVhw/aT+2tkdGoLjTE53C01i9mueh5uOGsvJGxbPn2V2prFmPbRluUT02bwOZm2alD4B3GROxuO09fvIuvXDzdByNZJuMJwaEO1LV0tJa/9MhE4Qdat9f7psseKTnBQFpuTLEzZaSAnSH9sqJ0ZdKhWGO6m/poOaALaE46VJEP3vM5PzZzrr0kxRN9YUoMUOziWip+cTfDFH1AIrS3Ard6qKxzfUL0XCe77If/EEvz7kt1rCu5meQ5X05uoXVyyNi7AuLzd0TlP9aJVCbLX8mMrpnRWPiPzYP1f2srsCWpHC9Fj6aRn6RCrVY8pBjHd4cIkk7gVWK5q0ecCKBDJXF29vPh4bGUpEX98lhl6bCerGmjQ1MT3XHenOJaIbc8nouJvT4BPTExLUEu3nVSnirur9u1DocjnzNrlnVUubrJHqaOBMhNQAu255UkjonF2F0zZZuWtdSSOv9Vf+vn+hCIUVcbjgC5UbD7cnEpFVkp9z9nhxRjWKdzLU1u5lOecMrB49Mx7ZtDER/WQ+Hl1kdqOxlti1r3S+buieNzufiNF8IrpFMvCdRK3YiNFyp3lXujYZ7+XkTeDca+NeValJ8cmJEtgDskLq6LRxYOOctr8s6Wbn9y5wpcOHGswn1WqRUhy5S/sXi7FvTn9l7Z7YZgQ1OZCp98JnZfJe2E4Kagbpr+VkWM290SuXdO++aUXPL+9cvdTM4DTWWsslHDf/rOT8GflEpDufiJ6UE+VzvpmdsLNTG6AabUHJ3vC8DweBrUEDTXRy6WRmIqT6RRGBVxbP6YmJTah7kTXff8A9Uh7ZLxbPY3/sXyT6X4fTPn3+gNdSs4OiCphtE8rAfaJr4+wqrWFDVXhk7QQ1VTXlZOvNg318XN14MT2wu5geeKSYtq4spKxVaj0WM2ZqurFJWHGZ1VVa7SyiRw5PzeBfr1jSffRFfQsedwQJI+UJG6CNAFdVm4xX4WS7Dc8DcYb8sOSzFWvM3SxlmmPLqwG/vArIvYqzpJeR84FEUCVXFTyGpD4/Dy2HA7omGmHyV1MPVkNpeH6M99XqQ2mmSpXEuQ/Oa+AHEafObPVmvJa99+bMfOUE4ULaOrGUtmbz9QdmWxprxkraaVhKWYsLmYHjCqmBi0bSA09vy1hlGbaUL+iZP3HeZofJqbrXdoYcuMs1vjjg8CEvfjUIFVY2oyzhVhYFqDle2z9X9IgQjns/53IhyoCNzEGPe3WcdsFnV/5NkIn7J9BSmgE1Px2FfxUV26Vx0R0hZiNUaftqi1etHWx+Wg6/DxfzWahLE6Jiu00WKLT3UvbmvnJQk8Os09alhVT/YrMzjU0O2FLWW4tp6+pieuA5r52GT1DnY+0cbbJrlyXY77g2mZYL6lRiuZoA5UbpCXExSK7FxTW5FDVB5McyjUnmVCsg6El27hXeJtRoe9jfliXZtUvj4uKKtv9cnhSe42YxZEWRfgeaHjqjz74saK/B0x6b72iPdagxP0h9RR0yvxKyRfMFEZiTdLdU0V+rvLfiPZbVkOuis94+ZnaksSa8s4GuzYPWjEJ6YE0xYz1dEAAmQIw5QGapBSYXX79YpFxxgRNUz1BJ8xq6Ye0Ka4K8tpzWIsTBZVu1OZhhE+5B6qwV0uHB09eLGo9OVR1dCfIaoBr0fzoRllM6rl/Zyy5Q4a9K8rett7J+GoDnNxWXjxduVGubOBR9dJsa998NQwup/r3DqYEvm91prLn8WXogXkgN3Ck3nXD9qymU6sC2XUj4DIgKpMyzVc0rtVsfrBpJlb+ufyiRw4Bxas2AXKnO5qz8N/13Gxe4VK+Re3u8QMFzUad3preyvv6amk/QM18MCS7VUVIJmpglB1vrv1/eNNg3ekn/ItPLaaw5G04NrC6m+staXoNVJG0DNnFR23jb5SBhlcc5q83yMo3QJDb6w6AVKgxS8yathpriW30Va8j9FIX2WK+QB+KcPDW7c2gKDoqgMX+8+MBTEPx+bg8Y5VdPUaU4kWpS5nnQi3oXjJ6+eK4BNGPN2eVWd+aWlb2jWmhVrlf50xujZQ5E5HW2pPqc3M6Ak9v5VZVq25TMAeDhaDImhhzzHkm+ee5wB982PxOhYRALOiA0ku9WmR/7o2xL0vNj7U701x7EHHEHMd9YZRBzwwUO7V7w4gn3QDcmIlwowQCaseYsH49kLupbMOrKZ9fT0qrgeVXhcUkJGj5U9tye6mFSu/ls1fpH1UwEPplpk+wfbVhLbDIe2YQQfkCAKw+Pz9dmV1Zj87ebJuNKP0k1Yn6veDfD7Ur2qQoJOPCeBfDm/IfjRWIIjmo7M3poxiYDaIlo5sx4ZJQ3h3OvRSVyq6nENqoqy70OnqCvSGRPAdEz6LHVTAQ+ou8WNRMh4P1PujMhyLuVBN4tUnH3ov6FrgJIJ+YT1CIyK/7ceXI+wTZ/SFmn9awub04Sl7lXdoYMpbVDzijWGpscoPFFJCYFJWLsyqVxkRMr+TyIoKRuPQZ+SRtzVtLGnJ2nqAZV5m12ktOmKCjcG+ESOtfISl2piqR16LCqytg39W9bBvvFhuY0GCWkWCvsazcVxi+fzr3rojyQJnivIcbeBUk4Kd4czwvyNXB6gISTATRjkww5ucBjdFTPNV3Qu4BdtcQBNr13MigHFGbcmX8QLfcEOXDwkG9IViQ72SxdbybC+WKWpdMYv9UtIIQIsXx5Ib9C7B2reJ5xQCTTL5J8vo1T1VspeWRqPsFv9QE3qQFROAki8jZDAOYHGpdGV7nVmpprZqaAscl6aA6gxSqS6PzruVJdtiAJkoFaYyGmNvnnbKo2pWHBaauUs8l1QM4m7EwEUUToWyh4d9u0cLGghaWlKqCmg4BqFuf0hl/r+mMdHL0XJNfEe0t5kUQfQVihv5YamJSaCc9N3jbYz37Tu1CofNTizXm8NpNDMzZpQPMkuP0aYBtlU/FVsr1oWE8M+/lcVTX/qzeQ+wUH3XmbHUyK15qJwN8/z21dMrBIeBmK01bQekdLvrCqIO/RZgnYf10ad7yhKoDdzvmdQYKaZ0tBzdtSEwsiYcfeBdJd5OM4ecE+dnHvAgGaubBTuMxcTmOtA7TavZOnV8wDSIrNqtpwgtp6Qocn2mbg4S1PFvN5m78PkITutO6/Xy2Cj8jjuR8+zu1K2erECa9cYda5esQQEw5gnPfG+zk7GVJX5Y6J7yNCPPMvQvK8t2Zvab0pUf6/UXMhvL7ShWxj3Alnh6p4wmYup7GOAlotYiVfpL+VMyG5wsNWOWijkeR5raEdJSmXfZOct3mBj1jaSTmjapw29Vo46KrrHC2cVEOA2130qKWG+6vFTgM/F3b8m+iY6JdzGsID2YRiUAVvzvGuOZjznON5PTFHwGASc1FNDs1Y2z20wN5J+fUcqXjBCwhbg8Cp2bFqkrhZFJy2fiHLfYEk6+Y6PEi4Wp4tzNUJWor/9SkiLB9Ac5vbW9lf9X7Xm5EaJFfEeXNcfYR/JmcHpQiazH+aHJqxtgFaXckYTbyQ84l4uZ8n0Hk4WqgxsKReJ0Llv3k5Kr6Jbhnsd+dt5kL0j3ZqjmYnhqzUO2CGpHTRH/oXia6NET2s9w0WrtWLWnXKVMrpK+Wh9W/6Fnij7oJ4c83MYDA5NGOdBrQhbQH7N9kZMhTjPZ08j8SVU1WVr+Qr/4fLsVkTQqSSbBHiSWfugag81UbNa5wOo+k62VvJCcs8b8XzV7xosS0TLFNebIA75ifRqr5Sfr8F1aM70lLenBptZwDNWGcBLTSfK+qSNHkRwR1I0mTfZBC/SQ0A4UOLebHiXF//aKfoEJ2e36kELs9JVmqPqXtSDFF5rqWKUdQ+K/7Z/UH2lW4M0F1r+bzORMzt5cwtS5gNaqxzgFaTKqCFhGdJGeYrlybEcNuROiPmwlAE9DFtakQbz+NdtywhOE8bZK5tqEM0iU5JkJ8plXqvWZYQucUKCfJqihd1ujr8/8bJxFdL2fGhALnxFh8UZa3QU87HI6Mbu+d9xexMY5MEtChr9SxO/8bkm3Fjd4Rdsywpk9VONbOafE4YTy5oQ/IJTn9tYENOB4Cr5u3mtd5KfijwauKIr6ocVvEicECMNreTe7ucdsLzcGd07kBw5sA6szr5988PJWPEeGjGmgW0Vbl4dEwCWtmdnt4m1YucJr7IQxmh4lCld7QqG7+BkIlLYv9xIFiqeqjDMxEazY+dqY/xW5YQCXnePqU30NcP1ycOIHaHLacHhIfHuXSXSTnvMzoUsue9fKwCMmfYczJ2wZmL5x5sdqax5gAtHl2Ri0eeV4CWT3RGzkfntKmhwjfL3smtWu/khBaqRvJsGU8m+9aVfaJX8SKtGXzKiweJKsUVIUrpeGMcbIYDtMfCtiPpEuDqew72nMCs+mnPSkQ7KsrpgJnwzNiQVwwYzyei38slY1F50JrNaawpD212LhG5gA+izcej486Ci7KhRHtDKqVH782NjLBzEk5LDt/E23wDQvxgViusmhCGaY3WSq6Hk02rzUToRItV0H3eKLsRrlk2UTa8Eb22YoAHqw9Y+ZNM8udlB0GuMxO8ylri3/HIkrGyBNGH84no23PJ2P5iTSZjZmMaa9xyyYgEtchALh79Zz4RHcvJXIbjranF19rcWtXmcK13knci8Mni7sau5p1UTXzXBjnVOH1xjZkIrQxJq3qqCsyTMfZnq5ttzSxR8yvravPXLJxoarzDcmrXFVa308IVQExuD5ipdRNVHDNnPcWj5Vw8Op5LxJ7MxyN/2NgzL2l2o7HWgFpcTk3vmdedi8e+l0tEduQTamM7i887XTuXS9oguU6cif4XKeUzXGUsWjNj6Qqqf1ROGue8Oc6xqhZ+tVINNq+1RfHn5M99u69RPBzpOFhIUVWRN6f6RL/ppf2L3J5SxeLvRFFE5sfEOhpKqO/FtSOfiG4cSkTf5D9cjRmbtA0lHVA7PT5/Zj4ZeUU+Ec3xE1QuwHEBbIlYudVeWiO9k2cnnMEcPO+zOeUb3BtSVbcqAKSdyugWjdPGny9IgDAsAARSL8R7caq9nHzMZ3oK/phLHrbqhpS1AHpEAvQtogc2Lg6DoRYDdB2PrOyE0FGZH1NemaygJ2L35ZKRH+YSsdef3TNvf7X+NnbPM5vQWIs9tURMy6vFDsrHo8vz8cjveLgpN4EKPVXupywT2+W29076QEHptJXkUJGa8jchwK2UnggOm6Sy6ukBVb9aObZaEtqiupuIidahLakBd9BIsdEe2CohNC98/EaF0DXoKm2hXiTcvKDzfcLNmbGhBC86RT6eT0ST+UTkALPbjHWySOD/eWk+IfJrj4vG4USUuXk17r2pPEmiM9wsPWTjahKXDSwWIWOgQGGDo+mCkuj850v7OUh4oVq1/tEJ2mNKKFIOP/77ih5256rGwuWJ8tc6kHkzCX4vixx+7lh7e0xFnlU9rsi5OgdfhHtlu3PxyL1DydjQmYvnz66ICBIm6W9sKsAtGdW/f3UuHvlmPhkbzieie0RV1NnkMhxtfeEgTEgq5gHEo0Kbn/cy3qb6RxucBRAoZyTD2m1y9igPd/lAFQ5OZ2vAql/831RnBC848H5TLq8zIr3JQkiZpaozOzVtfs7mv9g3k6AzlVoZXip2v3M5JOZE5IlcInZFPhH78Mb4vD7N6zcbytg0yK/5FuJQIrY8n4jifCLyu1wi6nKJ8i6vSOMYtbuvUft+owS285IxQUtQQz6CFFlremxV5gHojdoc3Di1hAtRXrU0LkQT+XXVkm4Bery30lH3HRC5uVI6QLkipMeovMWtkkvGwfHPQntsIlG4zUBW9r46YaXqLpEe6cP5ePTn+WT0nbl4JOYVnUyy39i0rIZGNFCLzsgnonPyiejKfCL6DVkRVaGoArayll8rt1O6J0hmWo1h4xXEbZmJKh+1OhGCphpVyuj0V8htF33f6wAWNLu0FCDlU8tT2yaHD6sqbJt7K4MIwGU9P+YUibxwM5+IfjIXj/TmE9EDzkrO99aM4ZMZ2ye9tsXReD4eOycfjz6QT0af1xe74iGpXJtMHpfbCW76oFxeUeTh4XUBzdylKt5SWCWQCnAU1cqgv/VakPzcOH9LUkkbIlOQJGAubMkroh1vttf4h3mNk5iLR8Zz8ciufCJ6Xz4Z/YnZDcZesOCW644N5BKRD+USkUvyicijchI2cxuPNepHvk3V0aCvSoDyXCm3w/s7t0hO20hIBddaczdLITyt6vmxifwx0aa1NC7IxRul+myH5JBUccejXSQrPLEH8ol5F+fi0WwuHhEJ1g19c7rO7l5oNoKxFxCo9cS6NsyL6eFpJJ+IviWXiJ46lIiUVEiaizuApsT8Ol1EqJyJsFCAxm2Dzoi6wJkIdQQRG56gXiWEHZGTr7g3dlmN/Fg7W5Ic8HIpGOUhh3/Ik/z8eUeGkrHv5+KRlw8l55kmS2P/evaL5T08h7J/Ph5dnE9E/zOfiN7pJZIlsHlVs5apfNTitAXOREjGRF8nb7FqRrK6GSDTvx8RLVh97OL+hUKbP6flyHId8MryXo6s7IKaxym7Lx+PvDmfiC7Kyz5LcYAtiXUNLZhrFrmxfx0LajDOxeeRfCK2OR/nnLbImCr5az1/5bxH2G2bB+fPP22UCrDcO+Lh3vBgjaEiIcDNC0d1+Z6J+mMcyHh1tEKyp73VSqE9lq8o1jj5zbzbFRJ9cigZKQwlotkwn6kxY/+aAJeIaMAWfUMuHjklF49sGkpGd3uDVyKq56/cjgJCvQrp6RxU4hHB7bp2WYJtGux3Z04GzR6t2YngB8O01yzOQ8s/WYuFsu7pi+d1Asg8zX43yR8raxI+/P/vyMUjPxlKxv4zv2DefmbFGjNWL9e2+BD3+1Pn8B6+iOVw2qLnCbKup8mmyLpl/4ZsdxFB5dk4sHECLddp45OstmnqFYEUjAC1i6KsbG4XhNp+oQbLG8XPTjrijbk2z+z0qV4wzyOOlbVWsmvyydin84noYacvOmSGV+wxqTJjxkKZzmnLxWMz8vHI7HwiOsCHYyiNLuE1xGOejFGbiwiBjfGS03aOZP3fMtjH7gqoclYLQ7fJr1wN9jzZKJ6XYBnYX9nSamXFdC4RWnLisaOkIp7z4nwiemQ+EY3kk7GZQZ+NMWPGGvXaAjyBfDz2v/lE9O58MvpcPh4dc0mdbt+olDZKVpB321op5cCmpMOvXpJgN63oEVPjuezPZu3iHQI3r+gV3hgHwV8uDm5uz7cltJTEVw/UyjnJCcwlYnvzyehj+Xjsqlw88hqTGzNmrIN2VncstjEZW8N1s/JJzn9yVTfKenI738bq6IQKowxHObBtEHr/UaHDf0HvAnFxL+wcyXs7XRNSbHNYWQ4KKyWjn3uDe3OJ2PW5ePRr+UTspV5OM9r100NMWGnMWJvzbNGuod75mgcXOzDnhEZfziei/9DAoawNp/X1GrY3JB3SqB85OYd0o/azP8nfPia/A2T5pCIsy+eNc48y9lwuHj13KBGFXDJWoQibX2yAzJixKQhHvVBoKBmbxdnp+UT0Fbl49KJ8vEKTXyW5dZJoud0zEapx3dqvehGtBDUJ7jxHJpvFT80losv4vIihnvkzPK/MhJbGjE0L8yerc8nIkUPx2GW5ZOShfDyyRyp/CMnwfEVSPMryifYXFNp46Vpz5SFdzlrkzCI8T7ab99EOJaK/OWPhIXMqDgWTHzNmbHqbrtOWS8RW5+PRz+bi0as5KTQnwz3FZ8v7ehP3OTDztPkdYEtIrzQuvL5Hc/HoX4cS0Q/l49H+auBvzJix6R6OLqzMA23smb8wF4/8Vz4Z+3E+Eb1XhHjxqCt1M+RVRVm7CgmtJsH69MdUdZfnyHYOxaO/yMcjb8t1xxab1WDM2AvGW/NCqg2LDuEh1gH5RDQxlIi83ysgOLSPCjBLxDrCbWu4r1KbX6lCaBlmqlwdzSei3UPx6IHndOs5RpPoN2bsXwHwTuRqEfl49KlcIjImwzZnElGCD1au0GmbqgnqbpVSzUXNe9PEub7cPflE7DsTvNRJ5scwkLbee0RsswCNGWtZWKpt+Hwy8h9D8ciP8vHotqFEdMydEek2xEfLU+GtuZQTCWo5SbvgDfy5ZOziXDxin9Uzf2HjYOKBFSHr9sfEHsgivBIjexlCxJ0bB7g5UAMNrIDYByNClwCxVwKQJYjiOd7/UbMQjRlrnYemDXpZOHvmUHcsnY9HP5RPRP7o5qTUTAQ1vai9wDZBTcQbMiK+fzifiP40F4+8eWMi6r54rjkXdlqSDmZAyH8jTM8EQm9GQEoY6DAAuRgD/ejaE/As8fvYbgrM1py4/gAMNgZMzkWYbAJMS4Dp7QiT8wDTde7rwQbUjBlrrbemVf42xqMz84no3Hwimsonoj8acuVzeM5KDXqRuSuPuNoa/pjK53n6Y+7AkXw8uj6fiPbnkt7sykZ1+UGCx/Hr4WCM8CUIk2cBk3EAygDTMmD+lfCvezCh961B9iL978KCGaJ2EiN6HcJ0FwIyDpgwAP64NkNAywiT3UDoNje8NeGnMWNty6tV/pyI9Q0lo7/NJ6I7hhzVDzFvNK+BmUrSN60/llCcOFmciAuvjGvC7cgnokP6pKTJ5seygA8AoHlEbIaxLUAGCC0DoQwTWsbE+Rlh8f3jWURChbQKlBChEcD0Yg6O/PExUWBpy8d3/p0/HwB94EPr8cxGQNOYMWNN2lk9WptVMjKYi0c+lUtErsonIs/lvDFtEpg8z6qBUXuuHJI3PEb0eBZy8eg3c8nIKg9YJ1epxIR2YYJnACYnIEz3CJAhtgIYxoFMgRlgCWyYcu/qNELJrFDhLJCZCMhHERD+92XnsdRjU/UcZQlwZcBkFIB81aw0Y8Y65bH5clP5ZHRxLh59dy4Ry+cT0WdyXluVUx3VKBYTJH8q+0rl3zn6/E67VuS2XJzLJHlA1tVCxQtM6BzA9PeO90SYA2iVYIY1AELAQYjcAZgeFurxsfDOrnZCVwFgFY8vwUx+5c9HGMLkegDaY1aaMWNTZL+Ys5jnrw7OJ6IrcsnYqZ5Om9sn6ibyHepHZV/pkNs47wxAzsejt+YT0bfmEtEF+XjM9YY2dre2NQlh2geY3ud4S3TcAbEJoOMCGvekEJDdgClgYs+o+/iELgNMn8AOoKnHDQA1CaAgvMEHESGvNavKmLEpMn8yfqgntmioO3ZWLhEp5OORx3OJKJ9NOcrzYLlEjHtg4/lEhF+jQlY8EXsyH4/elYvHrhiKR/7d//jtIsICpoOA6S6Z3woCmwrgQZhIYCNfQFA/7ARMX+Q8tryqP7bM3wkv8EkA+m6CsFlYxoxNtekJ+jMXzj04F4+8Op+IrsvFI1/LxWM/yyWi+VwiNjQUj/xyKB79Ri4R/Wg+HnnrUHcsUfE4HeixBExXA7bHhIdUH3D0yufJgHFdQMOYHgFAVLhZ8xJFAVH1JM8Bpsdhum6GWU3GjE0Xry0AkHLx2Kwz47GDc/Ho7Hw8doD//y9aEus69aDOtSUBphkAe1SEhCEAB0tAw4R+DRMaCtBkuBkO1LCodHJAOzZMSGvMmLEpsDOT1edSDnXPm7LXBZhkAOioXtWsFXKC46XxwsDXMMFhQs4XQ3hAkyEneRph8l5MDaAZM2asSQ8tBKBJqoUIDb+GiR0G0AZlCOnk53Bt7wwLWgfZiYC++bjjP2g+IGPGjDUGaBjsUQjnoWmgxj20UEWBhQjTW2VhQHLZJlY5FfdNenJbANNl5tMxZsxYhzy0cDk0ALo/wvTbCtBAdgr46Rvy38sAdBwI/Rkh62eaT8eYMWMNAlpDOTTWSA4Ny9alLKIrEdCCrKSWpUcmibR22fXYHNrGkwjstPlkjBkz1kEPLVwODYEtwc3+NwB8L2BbNb6rqyw9t3FEyDOY2P/tvC7TnG7MmLEmAK2dOTQJZtJTw0cA0J8jQu9EmDyBgDyLCffI6HYEJJcF/KIuo7RhzJixznto4XJonqfmaK7RbHYmELIaMH0nAsK5Zu9GQFatyWLByUOYmA/FmDFjzQJa+3JoEzw18OSAKF3HPbYZxhszZszYNPDQwuXQjBkzZqyjgNbuHJoxY8aMTXMPrbEcmjFjxox1ANA6l0MzZsyYsWnqoZkcmrG2L872VYxIjWoU0M5UqrIhBf8wvPAqZ5+hJ3X1vm+w7u+hc3/Zhd51TEOA1skcWrWqJl5Hp/WewWZgS+fMv0gAr59HEDnY+3/SBeTDjX/YAYsPsvQAoHQuUDyXELtC9wa1YUgsJusnblpC5nLNeSB4CVB7CWCyBGPaw6cLhd1A+6p9YG12P4zpQgz2ACJkCeYDe4EMACYLP0Cy+3XOQ2s8h6aDwrr1H5xF6Lq5a204sOMgFrBO1yJ8MCZ2N6JkKaZ0CSJkKQY7maUQnbimDFeu7UapvSCL7LMwIbcBJiMI00IW6E2Y0PW1AKre5l+DTpwFmH4aY/pHAPJPIPYWDHxArF1CiI5gTG5EBJ98LLb3C/McTYEapguA2P+DsH0FAiIG4ALQexAmD2BEH+BfEaH3YGJvRYjcwodyICA/xMR+8QsB4DCQNwCQjVmCr8NgbwZC70CE3A+YivcPmNyP+OASQjYDJtcBIRsRoW8IB2jtz6HxQ0mBAMakD4BcjoBsQUBGMNjDCOifs0COEOs4u77l09ODxuG9/xNrZmBkn4AIuQSA3oixPQyY3gmIPgiIPoDBfhAwvQdjuhWwGLr8F8D0U5igWMDnYwCohR/WDMD03xHQx8TwVqfh19VwB0eJ9BpEaD8g2pUllWEb0j4MlOUjzew5ANzroccDpveL05hP+8FUSiQrZVM3l6Kei0u+uJOJTmgAOHSQAWzPQtiOANCVgOnHANNH1fNiLFVTiaeuClIa2pGesfUeQebcDyEY+H2EyUsA00VZQvabVmBFaFcWrZPfr3XUKYB0A6YvR4TmhSS1vM8AzlQk0KV2JMhMeP8gL8wfg74CMI1nMdl/3Trn8//MMXZHc2jvOWY9f65vi3WEfbLbfNKT8xl/Bgg9qFUHj/4YmNgHAKZJwOQtiB/OjvaaXFO2WN/e+nLVed2v7nt37m8BMD2GD5jBiBx83Ic+YYCoVR8WYPpuAPI8BqLpSlGpYkClqoFYNBxw+irAEFEd2BYjoICwfT7C9rPOuDLqyLrIx/G05V1QKztjzug4djbQI5jYbxQnbYN5rI9+9eQuALIcgf0ZAPoXtTERUTpa8rkUiCkJGrkgwRMJlK9Te+9YAjImmxCm38WYvjZLYH/pMUyLzxPBuoOAkDcCkB8g4QErsOL3l+hzMcvuhiOVcwBAGwosPy8+oUmMnkOYcq/9VMD4rSi7brZ2IK5qdw4NATkEATmDvw4gfK6nN+dTqm7weaDjzgAW+3x+qE4mtCNkXdeaNe9zvsd0P8Q9XEz/DwG50z2YiTODVB7+5QopowlzSd37XJb7Sh4m9GFANAeE/BcCHHuhpjk6CWorANOnXfE8fUyYOwNRLm7nA7iqSyog6J4ZYPpBBORvgOlez7uRw18rdKs0UCPeBnN/13nOrVlkLw4Z7jjJfp4PA/JNefKp52dyoeujz8p19OiVgGDl65ODch3PRcyefBATuhEDOWoqF6Fq2sbE5hvuHMD0IV2FQr12BU4KvLRxcBPATBNMLLuP4Q424QNI8E6E7QsA22/rcvTK0hjsMdcbaWEOjd9TRAiPIJBcW2XwxuR58zjdQcNiLY1hQj8yifSEFgri1wCxTwdMH9MUPsr6mvWtqXIYiXBvLXLvn38e5FkE5M9A6HH4I45s+AuxMNXGnIraCOT3SHpjcsGXJ6iAKk9FfhhZZLslsCzCL0WA70CI7JbzELlEctlTFqXeCRXwYYM6XbGtvCcun/w8Jk7ZE6rkFnhP31pKJajh92HCw2W6F4nHIa5GluMd1poTWXXTucDmnMLUW4xyQSNij3OlhyzCv163/oMHOad5ZxYh0hY7AP0jAvIMn0jO773wjN0DwlYbXnmkYe6DK6BY4a3KxwMQ3h73hvhzXoEwP0zkGLs25NAA03kA9A+e9tnENeVFEwIc+D24IYvs3mYPiPU4OwvA/ibC5FEA7vmp0NFZC96B3dC6KlekOZzoZdyLJMR9fRaD/Q+M7MONt9ZoEQDZc7JgF3HlAqkyrUeClBPCXSsX2gn6CSU/6EA10XCbyFmMGNujCMgPar72Yz/EweNghOn5coPoIW1Zy5E1CGS1RrBp3oD7euUmAnorxnQ1JvbMdi5CLJPd6+y1XQjoagT0eR1sPY8l1IzM8J8NtvUUwcTNTeguTMJNZWpipkC/8jxRgGfpP4icQ40XfOiLG8oly8MTMD0EgP5IvpdxTIi6B2V/KDmZSynvVqwnFyzJs4BpFjCdHXSIGQssPdv9AOQ+IHXnKZaxtlF4xQYw+QA/lb18GHWHVzR4alWc3EpCGQEdWgv27AmeCXEX3VGA7duc8INLLqvTkrYOwEKMS5NAUpb5tZ2AKXcuD2wHqKnHo4TsD0A/wj0kHq6o0LCl4B1qepP02og7lq6B+x8+h4YwORRpczlreNtlt4gFQivtXVmgYfeCKmrNx5iehbXQEk8Ixdu0nmQuzgM1AeAXIkxepUcmxqp+iHQpBvpA+FNH5sOwGBH2iBt+eZN4ypP7QB1QBEzGEJDTsgjvFxQOIELWAKYPIq1Kp4UeDHf2cvNrTvKcPA/Y/hm11x3irwBPDswkZYGsmwOYnqblKlXYo+U8OwFmej7ULbSEBNUGZwo0MMZOFkF4EYN7OB/AhNYdY6c+I2SvjwCQ3yuPF1eElB04KLVijZYT5O/lXgQEGcSqm0ejSwDbD4QZEOvG/yoRClqyePKbSPPuBEiOIkK+4ANflfv7BgDZo03gLtfK0bV7Y8uNWXEvECI8ZD5nbRbmtjJfhgmajQm5GqnijQpZcEXRo0Pv3b/Bw2/4JnJo7uR0COHlSJoNB7RjCQk3Of34E9bOREBOQZiM8rWNtXUNHbyvbvrAO+C598+jlkcRpkevsde37JB8IVY4l2BOLG08qVkGjfLQ/EaqPNnd4gAmnLrx8oDQAwDTPbw8j1VSNrRX4OUCQQuRQeMRef/u5jVYIwsaVMjjlfK/C5geMJnwExElPU1nA9BzEHY9ZVl57rhH2gowbCiHJiane4dduFQA2ALQeIW0XhHAXn8iB823IiCPuXkyLWc6RfdJrU9Vqebv67cIyByDXNU/TAfQcKcXsz6GTHF55IfmcNd+6PdOEJB3IEwf88iL7pSfMAu87K+Guc+H/VdlKb6h09nN8UhQdEJQ0S+Gs80BGiV21xogsxDQH0iSrwIzhqfGK23hOgiXQxOApuXQ6no4gloS3kMDoJzjdrm6vxUcvQYOyoq16NGVJpEG0WlNIke7GzBZaZCrlocG9IGwwDBZEFNsdMmudhPKWCXVHUD7XpauO7BLa/rNonU9COh98kMNk7PzQlitGiloDYpI65TJn8DYvgNhcjsAuVt4f7iik0G9Pj+HqOZ7reRt0b0YbNLVhNa96msFTD+CgIwrZnpTRRftEABfJRj876/BA6N5Dy10Du0I1zsL6aGBk0Or66HJx39DxQSpBvJdPqK4pCy5eTfmTXungVX9cKDmvC5BbgZ6lEGuGjk0LHNorc8taR+Iam1SRQXBOidea4jjGd0DmL4ZYXt/VXVSYRoCskN4bm7XQs3FUK6owmlUErlgS7IcfjjCZBkQ2o2ALkTAW1poGmF6JMb0y0DoEzp4aaTfmpVc0CttcoFnMXkoC/jljYSeLpgTcqzO8A9R6at8Lcor9V5X2cvRaF6lRvnwqoXKc67wCFtBV2gqh4ZD89y8HBom9ox6VWPA9GHZ9uXO+qxzOHjdAVgezt49E555FhO31U8DPXUolaHBw0IDtBMMcrUuhxYqoanIuC6p1Wm7GQNsP4cx3ZElgrP1JwDyYwT0JAz2K3whhr6YL1YFAES0il61kr1WHZIhJV9Ej4jmZUwyjdyfLMH/joBchYDsRLzyKtuH9KG2uBa4KgByJnmfA3giDSXIiC2rbpgmANMdGkG27smuEsla6DSucoOSZrEnC+QJAJ5qICVM7NsRkNsxoUXed4uAPI6A7MZYkIa91je3hcpuQRFo6nNoHpjZr9a4e3WJslBJrpbEWF6kog9hTDcBwtdkiX0aEPI/GNPvI7AvBSA3IhBCAM8769HW7mPFc5YDPWuPPsK/f4tBrs7k0LTcgxeqyYpoETD5BcLkOCD2YC2Gto8b9A4EZJfWwVDNU6jwyrxyN3kSYfJTDPaRzVAkvJ8x9+a+i4DcJduevLauatw3TCuqwgjT3QjocQjWBSo3TAA1+pEZGNMfciDFYT2Hig3g6xnE9GFEyG8QIZ/GyH4LwmQpwvZcDijHn7B2Fk82Y0wHssR+PQLyUcD0XITJfRgTN/x2aQwt8einNoeGSVYdmH/wvPhwXq88oPlBvRcBvQoD/hgQ+9A61JBlgOlaBPZ5WBxS6rMibmGrajcNtr2WO6AvMsjVqRyaYo6rC5MbgW8gsJfjNdn9g/JDVTc0sWNA7MtEm82E3tKqYYCTj3OaqUcA6NHHHn289n4bIyWuzYI/9HkJxvSXaGIBoerp6ixUovI6fwc8UW8t0HMg9us5CAFQ1ijrX+ULHWKmvcsBdfJ6BPSQ8FQRcjAAfTkQ+j3Rx+i8hnFU0eu6b+fQCM7OwoQOg676UuMeq9yt5IY9Dph+AmGSqPl5+gRF12btQwBT7hWeKaIW8LpPKg5snY4EgrrBQfp6hOl8g1xtzKF5MjTuB14W+TGgJyFM5mHs5UgIwl3ZOjkk7r3wWYtZhBECslcWDGrxrDwunBvi0h0I6GI/cbJpArLerEzsAxHQtyPR0M+fn5S9IsQET80L+0RLjgDaN9Y/aOhBgMmZCKhqjG/AOxafxbijjkFuQYQeDkCaFkDkOU3ANAXYvkbmhMZ9YFbeV3NoWWIPZIW8lUwf1LrPeu4S02cQkGO8e0RDHhK2TkE6AAg9DIA+5YA1Ufk4rzChOjEED43sQkCPz2I6wyBXe3JobmITiMwtgVjsDyBC3jxJAJmLCb3U7e2sog4xgavjAMAOf2K9VaYLTwLhBQyyQ5GMtZxhOUhdQS5KHjbsCPH+B0WT8sTe2JphppsHAsI9qcsR8RRLmlFu0NMAmOAoJvRiAKFkUZFLhIZZ9NODh4aBHIYx3RmysqlyZywL9JKuKqKP4Q4J2vXxD1bkiYd4ftnJMxNN1URorI0BIk9jbH/T/vh6A2ZtzqG51R7kNK3/GgGZ31VFojg8cJAXgdC1cosLdReavApZIIuq5eRabQjsN/IWLI2oG1gk0DoaxuX9okGvUZ30gOnPlN5W/d5YqugwbviLEDmX2OuiXS1S/1Wh+loKszHQM5DWcgVNtwRNPQ8NE/tIBILEXZ+uoQpOQjOQrGvVvVWgiDA5CmGSxyA0B4WSMGC6DTA9K4vpe/wpCWMtzaFRLT/EP2SxYTcgOR+g2ZMLe43nv9eanWu21ajGaIQJJ93+eyMhQLOmh80I7Dc5FA9be73Vm7llMnnzR9/38cCNlhXa/pT59LZqNzRXeqi/WpuFOa1e/OqAymbxQQhEXs3ViWv8QJweOTTuoSFMd+ok2Hr32SF2k4u919a6NiSUhYMByFJM7FcAkFcCJoOY2gcbMGtzDo1vNEQ8ThQCWmwdyMIiyTmrr96AXTrBOALyo84eBhUhw1uBVLzectWOBaey9SgilVQVpSLCq2Dg0k/q6G1JIHHoJMKD+bNKGrej3w9AeZBkLnAVCEUibpCnNl1yaAjTASD2/U40UJfRLztLRJVzL2BydhZV9uo2CzhZirvs4+y6hSJjbciheSJ7tvKMRrU8y+RPKUzPwK5mPK0Jql64S3ZgsFc5ix93/D4iQg8ATE6THpKmHRak9yYOgj0IyCcnLGyMowiTbSHJs+r9OweMqIjab/7SW+22eqiuQjDGr0RA7nX5UY2x36dFDs0m9v6Iz7EgE/T0qkj7eJ+hI2dE7sKY/gdCdBEi9MAsmvhcOGtEMqZ9Ds3leWE6hjF5WStPEUTsklDy0BZQdT6Qc2pmgV4whfdQAfGRgMk9Hv+MVpX35m1MmNgbAVPZ4rVOJe7fzLlzoVqsdH06oGOI0J8cu279zE697w0n/5QXXb4DmIxC6Law6cRDs9Vj/wnp4XMDtBhRzReVa7uAMP05AgIY7NWY0Dhk0Qzjae0bOTQ9Cb8RgB5AT2zNKYSAvBiw/TDUUTlwq2tSvjiLiJBalrnaKbG1FM0UXprzmsr1DgOM6c2Y2P1dYr7k+xQ4fgJhusdtramrSycb+xF5BBGHPIw6sGlcrhzYaSDkobp8vGncywmYvlG24Y2Hyllin1yU17PLr92A6R18QhoG8n8Y009mEX0LELycrbnQANt0zKGpwSMI6MOAnQEhMEkVzWPe62qdrQFCn4MQJFKZX+KL6Lrpcj+B2G/IYvpkrXwMuPMI6L1A7JepvyUUDgRMTuedARBabNP1lK+fsveMnelauJLtvk/k0LyDlN6jOH8hQNkFMsW/VD2dQgvPVS+mY5iQPQD4iSyxH0S8xQzTSwDTo+vlZI11LoemJj9xpYqrsoQsbuXrQYSeDNgeDTHMw202R8LDpDcCprdgMnUXYHoTr15ibO+p72GK1/4swuRYBFhsOITsJIB9nWp2hgZC/yzC75mqNZTF9KWgjzwMxemaPnpoEkxegQlRleXxBiu3ZV2UQBsoo+d5/Z89P4R+Bpi+jM95xYTu/+5jP2wAaWpyaOIEGkWYfrmVr4XY6w8A4G1Fbu9iiM3skRCnUturYiizO7mK1pxDIDXyTwI5VAWwnQZsb9OlfOp6CbL5XoS8AJ0vhni8ucdd6R3c+pkC7ddDI7wd6VLlbaHJKQBrOnr6QOuJUkKyGMGLEqciXimHdXO19IsBqLbn0FQiGshTAPY7u5rQ+KqRP1sIfC6hahLG4YaTaD14U3dhd+G6oUfIHOS3Mbb3k+DwKkmmDOeZeeJ/OVGxy544daE2pl+TROgy7GN6aIozCUBfCUDv1Q7IlgpnemtUC88x9aSmuHgpUD7PIJtdiwWwIUq61h4PBqjam0MTH8JOhPCqlm4KIBYA2YQrdbnqDWvV6BBTrsKqq/DWCznlfEv6MwTkAELX8UG6xyB+UIQQGQRPRJJ//Y8pzx0CfSNgT6l3X8uheTlQemwW7N2YiPmmLscutOhjEx02zuFN9Lmcz2UBD2cJ/g/jrbU5h+a11uCtxF4fbW1Cna7E2C5hTPdRSemGB6swAPsXGNMDMaIzAJO1iPCJUbSBxxDN7q+c+mIIfQnChIWnbUyvHFqX1saEMfmmO+tUqRy7Xnc7Zgxoczmxl2NzOI32VwGou88wMtXR1ubQpDQ1ALm19a+FDAImW5XM9AsV0MDrbuD38SdcdQEjMhOAnoiAjEHIYb3SC+Ffj5hyQMN0lXjt+xAPrcrzKI/ovQiTOxEQPbVRbpxr15hEutfKp896pX8GIO7AIEDYAFfLcmjeKXlj68NfkgKgWyvkU17AoCaHqHwOgMzKYjoTYfJhcCWa7UYA7cXTANAyAGQvhBuHOO1mCvjCZ1nwILx6e5Gu9usbmchaHU1oeVGtaiwUN+7EQN5mEKvFOTQ5ZJh/vaHlmwLRlQhICQldqBcaiGlDYjy6xf0A5AhJV5mJCFkHTvW4MUCTjzG1gEZWQwMe2nTNoU2ovBP7IITp20GF007es6wfup6EUmtCUbe1UA0SImKWAD8A7wZiv6qrRSofJodGtN5KTG9o/WuhKzCxixga0NfyBpHIhSBD4ul2aROFZB8gZ5R/x1534izpnfKiACBi7w41TLeSof7qqV5HiHPRNBb9vphDCwCzrvdrisUAXLNMDFPZK/Jq4IkjIOyGo96A4Crtb43nWpX8uvDorwKjWNvCHFo7AQ2TXsDkBneKe4gWFHeSjlv5c0+4aXYRRQLmnsP9GMi3MF13iDxUughdx6u870R8eEmYKqfXe8i/vn8ahJxv9zHt98kcWl3gBjLIRQUwtn8PIDTLyt5BSvWhwBWjDyfhrZWxJg8lpOUxObnLtE+1LocmP6h2hJxRAHqxHMLRkIIownSzJEZe4bTi2NPqEuqxmP4agJycBfwSetzaGf5FyRO/4EwGqnuyexPmnaSx+Ht76hY4AvJTbcbCPp1Dq7JP/I5ADLB9JML0g4DpGYDprQiTPQ6YqvC0YqjPpOZy+vpH+b+/yYBaC3Jo7mKE1ntoCNEZGOwfAaGjGGh4Po/jil8gF34EgT3NLhoB/hWT2Qg8bwT7uEUY0xTG9lbkJZ7LdQFNVkSdA6Hzi1uRqitD6hdODq0euCFYNwNhchBguoBPNMeYvAkw4eKXD7jUHG1YDpYUEHciOrFDVfS9sYyyfxnh6w16tSqH5nw4LQU0JcEDhJyEebWsTqeAT0ufX7fuC/e7lpJvFpM4IuQaIOFDN2d+gPBQP9XVIdlx/3tBQN5V8ZrxvslDaw7Q6wz8Ifb7MSKXIEILCMhjXAdPVLKJGnxDvQE/NWYzgK86zlMTmNhHdXVIXcXk0JpdIIT8FwB5WgO0mmqtqm9S6sI7k8lh3/yACV07C2P6U8RP8RBVM7fK5uRVtkxhQeBm3KCe2L6aQwsP9pVrcO0aehAAfRUC8gkM9p8RJg96Xi3xdyOUa33eUk9vL2D7ywbBpnEOTZ76K5AE2Hqbw1NEEGVtPrl6n/+AAVM+4He3rm4bstr5NCb2O7o61CYD8jkQsd+ACH0Ca/234UBt38qhTS6/6Mu/gb0AgL4aATlNVrv12QzlkOEnJ91enAU7alBsmubQ3NALyC2apHO9HINS2+CgdmsWSP8+erDIEIW+BhP78bD0B60VbTwL5JJsFndsgSMEcwCRcxAIj7KhfsfpmEMLSrC3ku+V9TH8EeD9AchqTOznREeCmnRPQlW4GSL2cBbbyw2KTcMcmhNyHSdfE/mGmvgEhNZLjmtDQsQH/TmE6ax9lXi4Zi3iA4YLbmI9zAZWDdRAdwGmWSD2jFZOIgra+Di7loPM0QjbT4QYMzitc2gKyPhwawTkQMB0jpATEgOlyYyuNlQTMcYV+U7AziGGw3i36jAAchcAPcyg2DTOoXkfMNep9xQlQjX3OtXOBxGmhwa5+tPdVKgImJ6KtSn0tfOItFwx4wHIHQhoul2hp+p1BEItwHTYIZd6BNN9bS6nmrQFhC5EQI5HQPhcgN8AkN8Cpr9AQNZg7AxrBrC7PkZbPLja1ZMjL8daZ0C9bh3JadwBQF9vUGwa59C8TU2+hDzBwFAJcreZl9Dbssg+rFOgRqpULpseaYbwHK/oUQfQgjsHbs0i3PL3r4otBMgKrpmvQv0weZ/pmENzPTOCX40xvQw4jwyo3tXBwOGWXYHB4X3N+3KOv/925E6XY5ecG6I7xgHshwDIUZ/7YtYA2XTOoTmnIV0KkjWP6sx8BF3jXXwvpvBszSInv4CyrV+AvFSuj+yzAc0CTG2M6bezmH4ME3uF+r8Tj6eNLGwVgnwE43BSNTrp0n3/iN6RRfaLu1o01i+LnRYgguyVWbBL7nOR5gBtqnNoiuqAif3iLOA7nanzRBWa1KwG2XIk1tejAPaJWmTTmnVO3M/7C6rTIPT7E9PVPRUOY9Msh1a54CjPZfyiUeUNqU5QFtpcQG4GoGmg64TEtb3uA+64uMndM2cRrgUyE2E6CJj+zW06r+zbvI03bfPfX5ttbAAGYNqH+ZxNyThvcLya0kq7A2Gule/lqHAD8zpBG9qBsT0LATkUYXK7yznDtNx8W8/U59CylB6MgJ4NxB4HIG53CnhrXOqhEZ6fdA4KTL8PmMYRwIzJeuJaemUFcqrD4/Vyxpq8EEPYLmXBOziNTdMcmlvxw+QNgMlOqJwvUK7Ly8IuWZEvwLsB0xOB4O7Jn6Z6EpccgoB+CAHdhcAdK6eFxyr84yPeyGrh3TTQmgRAeAXsFFe6JsTQDg/4tfCT0McA2/+TJfZAUC4s3Guxk0DoZxGmO6TqRFkbo8cmB2pTl0NDmLwRMHkMYeJXkJ2Qn5TzT0WRSgwmxuSjCOz+RlMMuly9TdfO4Eoe2AmNy6F4fHq3ANj/AEx7DIpN4xxaRW4qS2YB0J+DI4fs9sVBSLKtO90ayB6MCfei1q7N4kMmc7Ku+dQHZwHCRwOm5yKwd2vtPmVNT7+MvQXKczmb+N++7712Q8CJgBwmBC+FLHNY/S2qMc7dDcivTYjQLwImLwntJXPRRkI+hrF9o9YI7x4WmExGC2xqc2gI6CwE9AtQR+694pB0w0/XC78JA/kqIvTIRtbQB9ajWRjsNwCxf+aEsvoakrJB9WhKxB7jJOy12Q/OMCi2D+TQ3IWH7BQA2alJs5RDCuRVDIJFQPgczF1AbO6xnYbpukgTeb2vALKHAfFOBjomprtjb4J75VwB14sR4W8W2U0l8jgNBbAQTqwMiep5KMqjkI3+/P0DoXsQoTsxojcjYucxtt+6JksOVs91wlp6ABD8WgzktCyhXPVkB3DQdtqr3JwZkMmLGk51Dg0w3Q8TET4yD6Crrq2ylk5wOlMwkYeWYOw/hgHfgrF9KhA7UTu0pD9HCG9GmD6BMBl3CllkXObtWI3uGP3fePHrOSC2qQbsKzk0GerIKpT9JeFpVYBFA5Lh2inrbGz334sICEVA+LSlwwBoCgFZCZjycXJHcJIrT87zqqEM37xmYrcCSau2aIGXXObyQQ01E69Z+0HHSz3Bng3EvtmtvpH6E7G8GZE+kCfU06wHqssveVOrHHVU5g7QVX9TqRZRbo3g5dTl0BCQ/RCIJnJ94E65vj6ZF9K6Tecit2ZL9WCiPM9tGFOu/MLnrN6L3Nyq/B2sBqW4n2u9Nj+XwiMPNy5B1WcQbB/IoQVVowDoj8Ej0pYhpPwxaC1EE3JsinHt6Mbz758DTJ9xGogrGt/VsAyVG/M3YZeDn1cNmhWcoYbvl6JJYGKv5u1g3kzH+jNL/R5rRVuSBlAeqCnPruLAKLvj3Now1m0qc2hZhGciIJ+CcBPG6s4AUPfWW1daQ3nl+gvV0hYEaNLbHpfN6T/s0lrQjO0DOTRfxW02YHoxdrlPNDSoBQwEdodQVICbBAl3QWLbW4TuSe4J7oUQnyy7AoCY/HNSBRIgrxXDfImUgA7W12Lhel81pd+JnnfZ127WptkOU89DQ0BeDZg+pB0UTbznSjDTUwJ65RsrSoamF9f43Ax3uE6Bd5QID56uMyC2L+XQunSZGkSXcE9HgIQsszfMTncnLnkCifokH32xTVA/CBlyVQKjkk7Gx3YF9POFe/+I01h4RewEvklxRfcEnQ7zSPe5HJp4zCzlXtqv3FwjqWDpNwXknkdMK2R/KsLVhh9bHYrqMKav6DKzOmvl0OgD0ACYQYdyaJWnqRt+vQoBvhc8F7xpb60tQ4ZVbykhbv4MYXJLK8KDj9jHzkCEfAsw2V05hYiWAbfTm2qLd1aeyhyamuyEid3HK8DYq2K6w4UnR0lp0QQoNYAFE1FcQph8n1N61hoNtKon3xKhroltFj4vIz70G6YAfOVX/CrhqRFakeNqb4gUIpTV+GfYA7M/Ymof/P5jj5/ke3fA8C2pr/P78DUE5BntecqYhM+rTbl35obsIkkeKoeme2gQIocGIXhoaj2tJaQHMD0TwN6rvGrkcc/YlEwgk0UAT+9PeJwXrwW8sMtIb9dKupOlCBy54Po8Jy+8QUBunIrXqzZ2FggH4otlC4jLWu98+KW8I6oksflCHJfVrJ8jTBZ3tUiGBirUGej7AZMdbj+lS3Tt2IarYK1XhP84RILbHaZMvxrGQ+OzR73KbNghzCKH9gFCSY3mdCqLBOQA3roGmO6saCXDdrnDh6S/wDAmP+O/rAUiKCFo/fsNcFVPtts9APQeTEJ5Oe6JlQXyjykDYRUuYDIbsP0jb7q1S+vQG7vbGGJ61Aa3+qqmTiF6THYdntkuL5UQOgOAHo6AFjCfKAX6RtDHn7Xcu6pMgmMvWS2rwuO1yKFa9VfluT7DK44hAO1Qp/1IFW+qSFW7IZojUw2YvrNe4lzlaNesQ7yyHAegJbnOx937WnHQtye1AV6UpIoHysv/EaHrDvJyfyca4Kq6QY79yEwg9HYMmnKCbyOARiwUfZLOTf/N1Ob+vNYdzlNzWqTImDt5yK1aVeRBypPOkfnY4w7JUeY4gOxFmNyNMI47C8/ugg+2JzRQPamE2t0I7CswEVpoGiXFzek1qYZRhQeFNTEAQh3SMNBdWPSt0rtAm/pd4xBw+iMxeRoBOWZtFmaEALQ+wOS+2ukFqj2+O5g39FR5XbodgH4NsP0kJnTUlbCqIDfb5cpUwyTWE1FTzrwcnog6gD6Psf3d9R/88Iy1WTAVzRAcNLVYTpEn6rjexhMAai4NAQOsmh4hs1ssSAHQnwCQHc7pSl3hQ9/Q1qaqTO6mJnQi3cPxBoYRpl8CWC9aqxAmHQD1CoHA4xCQaxGQMQQVE5jKntfS8HvXJr3bskHb+TfkcOvGECbXAiYI1uH9ENCvib5IXNF7WvZV+TxyLya3IBKOHAqYzMGYXOhOMPe8wLImteRRG0Ak0S9HxJ7f+L5QChh0JQL6Y0zoHW7+zm1PUocmLTfutfnWk2qVE9QO0QC/G4Bei8GRVDfWoBGy7kAgdJM7KFUtRqxREByPZ1zmPr4pQ77pUql1PDUMXP3itRjTn4BopFYb23ZlYBoGs0reWVlrfVFAdhMA127Dy9TrOR517r7opfss4ioQZB1gerXKNWl9rZWgogFBJShQP/GzIkeIvS6DKwHTdUjmdZy8Jn0JAnK3x6SfsMn1YSDco/10WNoOQZh7TUcDiNkJle/Byz2pqu84ctQxPjDZ+5tFZBZgcjhf84DpZo2MPK43res8sYlrZ8L32j7TwV889uWACcbIEZWU1CoDUo2CgTiNMLlXejdlNQlaqpHqygMXIUzmTbtc4EupFi4IGeUewDbB2NXn94oePna4zkEDHNjmopQz1KLjp+hlCNNXIiDzAXk8KqWAOnVVazIDgT1PKKBiep7eDeDOKcBuJbBisInmPZXdewXUFRSUZNU8YPpSBHQesScm27MYZwHTUQ8Ybe3+eYRgPhRae83h3x/Y3xSAqlIK2OvGkI8/Lp/rh34vvgkGgB4J7AdAFwKmr+PtTGrepooG3C4WKd1U2ZtJ/e1LqvWO03vU53KJJA/PxQQ7st9r7S5YZ8BsMqDGN+hmpwVI5KPGeAjDFygC+ngWyNnZLES6fFpZ0wrYArheiNjvAkyvQZiOyCqWbG8S+ZExMSfRu8bkNSpboJ4BQh/FhN4F2L4BAf3OtK5a+xRqs4QuxsQ+HQG5BTiBmtAnESHPa+99DGnvHRH5eWOyizdQA7Hvy4J9Myb4Ryesgbm1nkuBeZbgD2Ow+QT458FZP7xQwJ9vL6eb8CnrXXVmlAZ5okTmDbPEPgUDeQSwvQfA5iIB4wjTUUz450WeBky/2OjjNxzVUHt/wPT/gNi3IMKFFnkXB9mFCN0r79+4jGjGQRQXyBgQMirvyZOAKR9jtwmD/TMEZH+DQu3aEJREMdhrEZD/B2BvRMAlTuwvIkSOCgpzpjVQn0C7kKZBhrE9BwHhBM338vmICMjJCMipnC2OiT2EgJzJNxsm5PsIyBcBU/4770dgvxITu3tf+yz9VBGEhQrw27Jgr0OEfAVh8l1OLcFAcghIjks1YbC/gwn5ChBKMaZvwUCtaiFucE5TjrdDpBthShHQ72NMc4DtnwLQz/DK7GTABrnpBZIBTD/Gc1yA6RAQ+kMA++MI7FRXm3lahFJ/MaEfE6GthjCmJyFMvsVVNTi3jd9XhOlpCOFTMKZfwpiuRxi/XVc0bjf4/sua3+sCTA8GXEl6fKER+l77uqP4JuUcpNkIyEFZVLsNZ19ceNka3jQg2A9nycFrs3BwNgv7Vf29dY0IQlL/zwdDtn6/ZmhQ00LUbPYDHORmf+jYD3dcF6zWXiD2+v0AU76eDkYU9n8hrad9bwP8C9zkMD2V7znGEBibteNtu+tb71tT99Bs+vMDXOVQRlP2nqm9rus9x3ygDgga6oUxY8aMGTNmzJgxY8aMGTNmzJgxY8aMGTNmzJgxY8aMGTNmzJgxY8aMGTNmzJgxY8aMGTNmzJgxY8aMGTNmzJgxY8aMGTNmzJgxY8aMGTNmzJgxY8aMtdL+P1uRx3k+zC4xAAAAAElFTkSuQmCC;" vertex="1" parent="1">
          <mxGeometry x="414" y="182.5" width="88.85" height="75" as="geometry" />
        </mxCell>
        <mxCell id="DRNkL6EbgQ7DahQyPjbA-6" style="edgeStyle=orthogonalEdgeStyle;rounded=0;orthogonalLoop=1;jettySize=auto;html=1;" edge="1" parent="1" source="DRNkL6EbgQ7DahQyPjbA-1" target="DRNkL6EbgQ7DahQyPjbA-5">
          <mxGeometry relative="1" as="geometry" />
        </mxCell>
        <mxCell id="DRNkL6EbgQ7DahQyPjbA-7" value="" style="group" vertex="1" connectable="0" parent="1">
          <mxGeometry x="640" y="170" width="90" height="150" as="geometry" />
        </mxCell>
        <mxCell id="DRNkL6EbgQ7DahQyPjbA-8" value="" style="html=1;whiteSpace=wrap;shape=isoCube2;backgroundOutline=1;isoAngle=15;movable=1;resizable=1;rotatable=1;deletable=1;editable=1;locked=0;connectable=1;fillColor=#dae8fc;strokeColor=#6c8ebf;" vertex="1" parent="DRNkL6EbgQ7DahQyPjbA-7">
          <mxGeometry width="90" height="100" as="geometry" />
        </mxCell>
        <mxCell id="DRNkL6EbgQ7DahQyPjbA-9" value="service&lt;br&gt;A&lt;br&gt;&lt;div&gt;owner&lt;/div&gt;" style="text;html=1;align=center;verticalAlign=middle;resizable=1;points=[];autosize=1;strokeColor=none;fillColor=none;movable=1;rotatable=1;deletable=1;editable=1;locked=0;connectable=1;" vertex="1" parent="DRNkL6EbgQ7DahQyPjbA-7">
          <mxGeometry x="15" y="90" width="60" height="60" as="geometry" />
        </mxCell>
        <mxCell id="DRNkL6EbgQ7DahQyPjbA-10" style="edgeStyle=orthogonalEdgeStyle;rounded=0;orthogonalLoop=1;jettySize=auto;html=1;" edge="1" parent="1" source="DRNkL6EbgQ7DahQyPjbA-8" target="DRNkL6EbgQ7DahQyPjbA-5">
          <mxGeometry relative="1" as="geometry" />
        </mxCell>
        <mxCell id="DRNkL6EbgQ7DahQyPjbA-11" value="" style="shape=cylinder3;whiteSpace=wrap;html=1;boundedLbl=1;backgroundOutline=1;size=15;fillColor=#dae8fc;strokeColor=#6c8ebf;" vertex="1" parent="1">
          <mxGeometry x="620" y="370" width="60" height="80" as="geometry" />
        </mxCell>
        <mxCell id="DRNkL6EbgQ7DahQyPjbA-12" value="BD_A" style="text;html=1;align=center;verticalAlign=middle;whiteSpace=wrap;rounded=0;" vertex="1" parent="1">
          <mxGeometry x="620" y="450" width="60" height="30" as="geometry" />
        </mxCell>
        <mxCell id="DRNkL6EbgQ7DahQyPjbA-13" style="edgeStyle=orthogonalEdgeStyle;rounded=0;orthogonalLoop=1;jettySize=auto;html=1;" edge="1" parent="1" source="DRNkL6EbgQ7DahQyPjbA-9" target="DRNkL6EbgQ7DahQyPjbA-11">
          <mxGeometry relative="1" as="geometry" />
        </mxCell>
        <mxCell id="DRNkL6EbgQ7DahQyPjbA-14" style="edgeStyle=orthogonalEdgeStyle;rounded=0;orthogonalLoop=1;jettySize=auto;html=1;entryX=0;entryY=0;entryDx=0;entryDy=52.5;entryPerimeter=0;dashed=1;" edge="1" parent="1" source="DRNkL6EbgQ7DahQyPjbA-5" target="DRNkL6EbgQ7DahQyPjbA-11">
          <mxGeometry relative="1" as="geometry">
            <Array as="points">
              <mxPoint x="450" y="423" />
            </Array>
          </mxGeometry>
        </mxCell>
        <mxCell id="DRNkL6EbgQ7DahQyPjbA-15" value="" style="ellipse;whiteSpace=wrap;html=1;aspect=fixed;" vertex="1" parent="1">
          <mxGeometry x="370" y="190" width="80" height="80" as="geometry" />
        </mxCell>
      </root>
    </mxGraphModel>
  </diagram>
</mxfile>
